<svg width="1221" height="1558" viewBox="0 0 1221 1558" fill="none" xmlns="http://www.w3.org/2000/svg">
<path fill-rule="evenodd" clip-rule="evenodd" d="M713.828 136.324C697.65 134.612 680.889 135.789 664.235 140.252C591.519 159.736 548.367 234.479 567.851 307.194C587.335 379.91 662.078 423.063 734.793 403.579C751.447 399.116 766.551 391.755 779.706 382.184C757.65 415.4 723.861 441.022 682.32 452.153C591.82 476.402 498.797 422.695 474.547 332.195C450.298 241.695 504.005 148.671 594.505 124.422C636.046 113.291 678.119 118.585 713.828 136.324Z" fill="#F9F9F9" fill-opacity="0.15"/>
<path d="M314.439 142.867L315.334 159.946L331.854 164.372L315.888 170.501L316.783 187.581L306.02 174.289L290.053 180.419L299.368 166.075L288.604 152.784L305.124 157.21L314.439 142.867Z" fill="white" fill-opacity="0.15"/>
<path d="M112.304 155.052L113.199 172.131L129.719 176.558L113.752 182.687L114.647 199.766L103.884 186.475L87.9172 192.604L97.232 178.26L86.4689 164.969L102.989 169.395L112.304 155.052Z" fill="white" fill-opacity="0.15"/>
<path d="M372.1 417.407L372.995 434.486L389.515 438.913L373.548 445.042L374.443 462.121L363.68 448.83L347.713 454.959L357.028 440.615L346.265 427.324L362.785 431.75L372.1 417.407Z" fill="white" fill-opacity="0.15"/>
<path d="M850.438 242.584L863.626 253.473L878.058 244.294L871.777 260.202L884.966 271.091L867.896 270.034L861.615 285.942L857.346 269.381L840.276 268.323L854.707 259.145L850.438 242.584Z" fill="white" fill-opacity="0.15"/>
<path d="M915.43 75.5252L928.618 86.4141L943.049 77.2359L936.769 93.1438L949.958 104.033L932.888 102.975L926.607 118.883L922.338 102.322L905.268 101.265L919.699 92.0865L915.43 75.5252Z" fill="white" fill-opacity="0.15"/>
<path d="M1094.99 272.986L1095.89 290.066L1112.41 294.492L1096.44 300.621L1097.34 317.701L1086.57 304.409L1070.61 310.538L1079.92 296.195L1069.16 282.903L1085.68 287.33L1094.99 272.986Z" fill="white" fill-opacity="0.15"/>
<path d="M1123.82 76.316L1124.72 93.3953L1141.24 97.8218L1125.27 103.951L1126.17 121.03L1115.4 107.739L1099.44 113.868L1108.75 99.5244L1097.99 86.233L1114.51 90.6596L1123.82 76.316Z" fill="white" fill-opacity="0.15"/>
<path d="M152.148 302.158L167.162 310.347L179.591 298.599L176.442 315.409L191.456 323.599L174.496 325.798L171.346 342.609L164.013 327.158L147.053 329.357L159.481 317.609L152.148 302.158Z" fill="white" fill-opacity="0.15"/>
<path d="M523.974 738.74L524.869 755.819L541.389 760.246L525.422 766.375L526.317 783.454L515.554 770.163L499.587 776.292L508.902 761.948L498.139 748.657L514.659 753.084L523.974 738.74Z" fill="white" fill-opacity="0.15"/>
<path d="M304.022 623.491L319.036 631.68L331.465 619.932L328.316 636.742L343.33 644.932L326.369 647.131L323.22 663.942L315.887 648.491L298.926 650.69L311.355 638.942L304.022 623.491Z" fill="white" fill-opacity="0.15"/>
<path d="M1073.3 752.06L1058.96 761.374L1063.39 777.894L1050.09 767.131L1035.75 776.446L1041.88 760.479L1028.59 749.716L1045.67 750.611L1051.8 734.645L1056.22 751.165L1073.3 752.06Z" fill="white" fill-opacity="0.15"/>
<path d="M961.682 583.098L947.338 592.413L951.765 608.933L938.473 598.169L924.13 607.484L930.259 591.517L916.967 580.754L934.047 581.649L940.176 565.683L944.602 582.203L961.682 583.098Z" fill="white" fill-opacity="0.15"/>
<path d="M570.23 583.779L576.207 599.804L593.294 599.071L579.901 609.707L585.878 625.732L571.624 616.281L558.231 626.917L562.814 610.44L548.559 600.989L565.647 600.257L570.23 583.779Z" fill="white" fill-opacity="0.15"/>
<path d="M368.685 1248.61L351.605 1249.51L347.179 1266.03L341.05 1250.06L323.97 1250.96L337.262 1240.19L331.132 1224.23L345.476 1233.54L358.767 1222.78L354.341 1239.3L368.685 1248.61Z" fill="white" fill-opacity="0.15"/>
<path d="M356.499 1046.48L339.42 1047.37L334.993 1063.89L328.864 1047.92L311.785 1048.82L325.076 1038.06L318.947 1022.09L333.291 1031.4L346.582 1020.64L342.155 1037.16L356.499 1046.48Z" fill="white" fill-opacity="0.15"/>
<path d="M864.374 939.265L850.03 948.58L854.457 965.1L841.165 954.337L826.822 963.652L832.951 947.685L819.66 936.922L836.739 937.817L842.868 921.85L847.294 938.37L864.374 939.265Z" fill="white" fill-opacity="0.15"/>
<path d="M117.981 545.739L114.425 562.468L129.237 571.02L112.228 572.808L108.672 589.537L101.715 573.912L84.7064 575.7L97.4162 564.256L90.4599 548.632L105.271 557.183L117.981 545.739Z" fill="white" fill-opacity="0.15"/>
<path d="M954.315 831.614L941.606 820.17L926.794 828.722L933.751 813.097L921.041 801.653L938.05 803.441L945.006 787.817L948.562 804.546L965.571 806.334L950.76 814.885L954.315 831.614Z" fill="white" fill-opacity="0.15"/>
<path d="M811.87 1457.55L794.845 1459.18L791.13 1475.87L784.323 1460.18L767.297 1461.81L780.115 1450.49L773.308 1434.8L788.037 1443.49L800.855 1432.17L797.141 1448.86L811.87 1457.55Z" fill="white" fill-opacity="0.15"/>
<path d="M696.573 854.07L681.016 846.965L669.451 859.566L671.401 842.575L655.843 835.47L672.605 832.073L674.554 815.082L682.965 829.974L699.727 826.577L688.163 839.178L696.573 854.07Z" fill="white" fill-opacity="0.15"/>
<path d="M237.215 810.694L240.771 793.965L225.96 785.414L242.969 783.626L246.525 766.897L253.481 782.521L270.49 780.734L257.78 792.178L264.737 807.802L249.925 799.25L237.215 810.694Z" fill="white" fill-opacity="0.15"/>
<path d="M229.017 1219.78L211.937 1220.68L207.511 1237.2L201.382 1221.23L184.302 1222.12L197.594 1211.36L191.465 1195.39L205.808 1204.71L219.099 1193.95L214.673 1210.47L229.017 1219.78Z" fill="white" fill-opacity="0.15"/>
<path d="M569.091 1027.38L553.533 1020.27L541.969 1032.87L543.918 1015.88L528.361 1008.78L545.123 1005.38L547.072 988.388L555.482 1003.28L572.244 999.883L560.68 1012.48L569.091 1027.38Z" fill="white" fill-opacity="0.15"/>
<path d="M109.733 984L113.289 967.271L98.4774 958.719L115.486 956.932L119.042 940.203L125.999 955.827L143.008 954.039L130.298 965.483L137.254 981.107L122.443 972.556L109.733 984Z" fill="white" fill-opacity="0.15"/>
<path d="M854.207 691.157L854.621 708.254L871.01 713.144L854.878 718.821L855.292 735.919L844.907 722.331L828.774 728.009L838.489 713.932L828.103 700.344L844.492 705.233L854.207 691.157Z" fill="white" fill-opacity="0.15"/>
<path d="M1069.56 502.395L1060.08 488.161L1043.61 492.781L1054.22 479.365L1044.73 465.131L1060.77 471.073L1071.38 457.656L1070.68 474.744L1086.72 480.686L1070.25 485.306L1069.56 502.395Z" fill="white" fill-opacity="0.15"/>
<path d="M960.245 396.195L943.153 396.811L938.457 413.256L932.59 397.191L915.498 397.806L928.964 387.262L923.097 371.197L937.286 380.746L950.752 370.201L946.055 386.647L960.245 396.195Z" fill="white" fill-opacity="0.15"/>
</svg>
